<?xml version="1.0" standalone="no"?>
<!DOCTYPE svg PUBLIC "-//W3C//DTD SVG 20010904//EN"
 "http://www.w3.org/TR/2001/REC-SVG-20010904/DTD/svg10.dtd">
<svg version="1.0" xmlns="http://www.w3.org/2000/svg"
 width="1920.000000pt" height="1080.000000pt" viewBox="0 0 1920.000000 1080.000000"
 preserveAspectRatio="xMidYMid meet">

<g transform="translate(0.000000,1080.000000) scale(0.100000,-0.100000)"
fill="#FFFFFF" stroke="none">
<path d="M9065 10509 c-1496 -75 -2882 -802 -3800 -1994 -532 -691 -878 -1509
-1005 -2372 -68 -467 -68 -1019 0 -1486 244 -1667 1294 -3104 2815 -3852 1326
-652 2885 -693 4250 -113 1690 719 2864 2291 3080 4123 100 852 -31 1772 -365
2560 -40 94 -77 182 -83 198 -11 27 -3 35 470 510 364 365 487 494 506 532 77
155 77 325 0 480 -19 38 -139 164 -491 517 -502 503 -517 516 -652 549 -130
31 -287 3 -396 -71 -33 -21 -221 -201 -419 -399 -198 -199 -365 -361 -372
-361 -6 0 -31 16 -55 37 -23 20 -97 77 -163 126 -832 623 -1782 964 -2830
1017 -219 11 -267 11 -490 -1z m665 -1804 c442 -56 869 -198 1245 -414 100
-58 273 -172 335 -221 l25 -19 -1010 -1011 c-555 -555 -1014 -1010 -1020
-1010 -5 0 -201 190 -435 423 -308 306 -439 430 -476 450 -105 55 -251 72
-363 42 -132 -35 -137 -39 -614 -514 -246 -245 -463 -468 -482 -496 -48 -69
-77 -156 -83 -249 -6 -94 9 -168 51 -256 28 -60 106 -140 1016 -1053 640 -641
1009 -1004 1051 -1033 100 -68 192 -97 326 -102 130 -5 200 10 314 64 73 35
108 69 1507 1467 788 787 1434 1429 1437 1427 8 -8 55 -261 71 -380 23 -165
30 -505 16 -685 -88 -1090 -695 -2057 -1645 -2614 -375 -221 -811 -367 -1271
-427 -160 -21 -609 -25 -760 -6 -596 74 -1105 267 -1570 596 -226 160 -497
415 -670 631 -234 292 -438 665 -556 1014 -122 362 -173 675 -173 1071 0 405
52 718 180 1092 230 672 695 1275 1289 1673 452 303 981 494 1501 545 60 5
125 12 144 14 78 9 503 -4 620 -19z"/>
</g>
</svg>
